<svg xmlns="http://www.w3.org/2000/svg" width="237" height="60" viewBox="0 0 237 60" fill="none"><g clip-path="url(#clip0_36_780)"><path d="M68.6571 24.4262L65.2705 43.6242H70.0541L73.349 25.1247L71.1124 24.4191H83.1773C86.3029 24.4191 85.174 30.7691 82.0484 30.7691H73.1515L76.1007 35.5598H81.2723C90.4939 35.5598 93.6265 19.6002 84.0945 19.6002H64.9741L68.6571 24.4262Z" fill="white"></path><path d="M100.851 20.4609H96.3852L95.8208 23.6571H100.287L100.851 20.4609Z" fill="white"></path><path d="M97.4082 27.7069L94.9176 28.4125L92.2365 43.6312H97.0201L100.28 25.1528H90.9595L95.0446 27.7069H97.4082Z" fill="white"></path><path d="M108.26 43.6242H118.73L115.266 38.8335H104.831L106.454 38.2903C103.702 36.3782 105.473 29.9295 109.875 29.9295H116.832L121.99 25.1459H111.773C99.0735 25.16 95.3693 43.6242 108.26 43.6242Z" fill="white"></path><path d="M126.935 22.2531L124.452 22.9516L120.804 43.6312H125.595L126.865 36.4205L127.972 35.588L133.158 43.6312H139.409L132.481 33.0057L142.831 25.1529H135.585L127.817 31.0301L129.814 19.699H120.494L124.579 22.2531H126.935Z" fill="white"></path><path d="M147.643 22.2531L145.16 22.9516L141.512 43.6312H146.296L150.515 19.699H141.202L145.28 22.2531H147.643Z" fill="white"></path><path d="M157.309 43.6241H167.78L164.315 38.8334H157.359C156.774 38.8847 156.189 38.7525 155.683 38.4554C155.177 38.1582 154.776 37.7108 154.537 37.1754H167.744C172.302 34.1415 172.641 25.181 165.91 25.181H159.976C148.095 25.1599 144.715 43.6241 157.309 43.6241ZM165.374 29.9294C167.032 29.9294 166.601 32.3847 164.943 32.3847H154.988C155.395 31.6899 155.949 31.0927 156.611 30.635L155.016 29.9294H165.374Z" fill="white"></path><path d="M171.555 43.6241H185.214C192.714 43.6241 195.797 34.8753 193.18 31.2065C197.293 27.2483 196.644 19.6848 189.405 19.6848H171.244L174.948 24.4896L171.555 43.6241ZM185.927 38.8335H177.185L178.06 33.8946H186.802C190.47 33.9017 189.603 38.8476 185.927 38.8476V38.8335ZM188.46 24.4755C192.135 24.4755 191.317 29.1039 187.648 29.1039H178.899L179.605 25.174L177.368 24.4684L188.46 24.4755Z" fill="white"></path><path d="M200.884 43.6242H206.084C210.868 43.6242 213.048 41.2254 213.471 38.8335L215.038 29.9295C215.461 27.5377 214.036 25.1459 209.245 25.1459H204.137C199.353 25.1459 197.081 27.5377 196.658 29.9295L195.092 38.8053C194.704 41.2113 196.115 43.6242 200.884 43.6242ZM208.405 29.9295C209.873 29.9295 210.014 31.27 209.901 31.9403L209.04 36.8227C208.987 37.3559 208.744 37.8521 208.355 38.2211C207.967 38.5902 207.459 38.8075 206.924 38.8335H201.759C200.292 38.8335 200.143 37.493 200.263 36.8227L201.124 31.9403C201.218 31.4612 201.429 31.0128 201.738 30.6351L199.53 29.9295H208.405Z" fill="white"></path><path d="M221.338 27.7069L219.264 28.2855L222.488 34.4097L214.417 43.6312H220.287L224.682 38.6218L227.279 43.6312H233.149L228.33 34.4097L236.409 25.1528H230.602L226.164 30.2328L223.483 25.1528H214.163L218.981 27.7069H221.338Z" fill="white"></path><path d="M47.6809 38.8687L43.9203 52.3236C43.721 53.0274 43.2977 53.6471 42.7146 54.0889C42.1316 54.5306 41.4204 54.7704 40.6889 54.7718H30.8112C29.7767 54.7634 28.753 54.9826 27.8126 55.4139C26.2307 56.1291 24.5146 56.499 22.7785 56.499C21.0424 56.499 19.3263 56.1291 17.7444 55.4139C16.804 54.9826 15.7803 54.7634 14.7458 54.7718H6.84365C6.33113 54.7702 5.826 54.6495 5.36808 54.4193C4.91016 54.1892 4.51197 53.8557 4.20489 53.4454C4.08685 53.2954 3.98293 53.1348 3.89445 52.9656C5.30555 53.0785 6.71665 53.135 8.12775 53.135C20.093 53.1491 31.7173 49.1493 41.1405 41.7756C29.8422 47.449 17.0176 49.3341 4.56472 47.1519C4.05673 47.0672 3.54168 46.9684 3.03368 46.8697C2.39163 46.7427 1.75663 46.6016 1.12869 46.4534L0.253811 49.586C-0.0101058 50.5461 -0.0678144 51.5512 0.0844789 52.5352C0.265203 53.6346 0.710762 54.6734 1.38269 55.562C2.01684 56.4067 2.83954 57.0915 3.78521 57.5619C4.73087 58.0323 5.77335 58.2752 6.82954 58.2714H14.7105C15.2405 58.2685 15.765 58.3791 16.2486 58.5959C18.2887 59.5215 20.503 60.0003 22.7432 60.0003C24.9834 60.0003 27.1978 59.5215 29.2378 58.5959C29.721 58.3777 30.2458 58.2669 30.7759 58.2714H40.6536C42.1493 58.2678 43.6031 57.7769 44.7948 56.873C45.9865 55.9691 46.8511 54.7014 47.2576 53.262L51.8225 36.8932C51.0534 37.3165 48.1042 38.6853 47.6809 38.8687Z" fill="#DCE067"></path><path d="M58.5961 2.70227C57.9586 1.85776 57.1333 1.17328 56.1854 0.703027C55.2375 0.232774 54.1932 -0.0103357 53.1351 -0.00704715H19.2687C17.7767 -0.00283486 16.3267 0.48786 15.1387 1.39061C13.9508 2.29336 13.0896 3.55891 12.6859 4.9953C12.6859 4.9953 10.9714 11.1124 10.9009 11.3453C11.9028 12.0461 12.9329 12.6999 13.9912 13.3067C23.9286 19.2009 35.5112 21.7091 46.9968 20.4539C35.5005 19.4242 24.5627 15.0289 15.5505 7.81751L16.0796 5.94074C16.2775 5.23936 16.6987 4.6216 17.2793 4.18108C17.8598 3.74057 18.5682 3.5013 19.2969 3.49954H53.1633C53.679 3.49839 54.1879 3.6165 54.6504 3.84464C55.1128 4.07277 55.5162 4.40476 55.8291 4.81464C56.142 5.22452 56.3559 5.70121 56.454 6.20744C56.5521 6.71367 56.5318 7.23574 56.3948 7.73284L54.1158 15.8043L54.3346 15.889L54.6944 16.0372C55.6006 16.4149 56.4758 16.8632 57.312 17.3777L59.7391 8.69239C60.029 7.67397 60.0766 6.60185 59.8782 5.56173C59.6797 4.52162 59.2406 3.54236 58.5961 2.70227Z" fill="#DCE067"></path><path d="M58.9275 27.7352C57.1002 32.0955 52.3941 34.0851 48.436 36.0607C32.9139 43.3067 15.8396 43.1162 5.96188 42.1707L5.51739 42.1214C4.38145 41.9873 3.36546 41.8674 2.44824 41.7404L8.79819 19.2968C9.59547 19.6143 10.3575 19.9036 10.5268 19.953L12.0296 20.4045C12.0554 20.4013 12.0815 20.4013 12.1072 20.4045C30.0635 25.6538 45.2681 26.2747 51.618 24.7436C52.2375 24.6036 52.8423 24.4052 53.4243 24.151C56.0066 22.9727 55.0188 21.0607 53.4807 19.4944C53.3678 19.3744 53.2831 19.3109 53.1703 19.198C52.2558 18.3496 51.2637 17.589 50.2069 16.9261C51.3241 17.2063 52.4223 17.5574 53.4948 17.9774C54.7582 18.4506 55.9464 19.1041 57.0226 19.9177C60.1623 22.4083 59.9435 25.4069 58.9275 27.7352Z" fill="#DCE067"></path></g><defs><clipPath id="clip0_36_780"><rect width="236.409" height="60" fill="white"></rect></clipPath></defs></svg>